<?xml version="1.0" encoding="utf-8"?>
<!-- Generator: Adobe Illustrator 16.0.0, SVG Export Plug-In . SVG Version: 6.00 Build 0)  -->
<!DOCTYPE svg PUBLIC "-//W3C//DTD SVG 1.1//EN" "http://www.w3.org/Graphics/SVG/1.1/DTD/svg11.dtd">
<svg version="1.1" id="Layer_1" xmlns="http://www.w3.org/2000/svg" xmlns:xlink="http://www.w3.org/1999/xlink" x="0px" y="0px"
	 width="238.891px" height="241.684px" viewBox="0 0 238.891 241.684" enable-background="new 0 0 238.891 241.684"
	 xml:space="preserve">
<g id="Layer_1_2_" display="none">
	<g id="Layer_1_1_" display="inline">
	</g>
	<g id="Layer_1_copy" display="inline">
	</g>
	<g id="Layer_2" display="inline">
	</g>
	<g id="Layer_5" display="inline">
	</g>
</g>
<g id="Layer_2_1_" opacity="0.7">
	<path fill="#FFFFFF" d="M0.656,241.184c0,0,22.669-82.667,84-154.667c61.333-72,119.333-85.333,153.333-86L221.322,27.85
		c0,0-20,0-52,18.667l39.668-0.333l-14.405,27.55c0,0-54.928-0.217-68.595,18.45l57.229,0.469l-15.712,26.506
		c0,0-35.186-5.641-74.852,18.025l61.333,0.667c0,0-26.667,48.001-91.333,28.334c0,0-32,48.892-46.333,74.999H0.656L0.656,241.184z"
		/>
</g>
</svg>
